# xmcd CD database file
#
# Track frame offsets:
#	150
#	7255
#	26312
#	46327
#	64825
#	82652
#	96120
#	109357
#	129452
#	150460
#	171687
#	193880
#	209347
#
# Disc length: 3155 seconds
#
# Revision: 0
# Processed by: cddbd v1.5.1PL2 Copyright (c) Steve Scherf et al.
# Submitted via: CDex 1.50Beta7
#
DISCID=af0c510d
DTITLE=木村充揮 - 小さな花
DYEAR=2006
DGENRE=Blues
TTITLE0=〜Opening〜
TTITLE1=プロフェッショナル
TTITLE2=小さな花
TTITLE3=心はマ・ル・ハ・ダ・カ
TTITLE4=真っ赤なホッペ
TTITLE5=涙
TTITLE6=つったかマーチ
TTITLE7=浮世の晩
TTITLE8=スキップミュージック
TTITLE9=恋するマリー
TTITLE10=出稼ぎブルース
TTITLE11=この街
TTITLE12=ケサラ 〜Che Sara〜
EXTD=YEAR: 2006
EXTT0=
EXTT1=
EXTT2=
EXTT3=
EXTT4=
EXTT5=
EXTT6=
EXTT7=
EXTT8=
EXTT9=
EXTT10=
EXTT11=
EXTT12=
PLAYORDER=
